<?xml version="1.0" encoding="utf-8"?>
<!-- Generator: Adobe Illustrator 22.1.0, SVG Export Plug-In . SVG Version: 6.00 Build 0)  -->
<svg version="1.1" id="Calque_1" xmlns="http://www.w3.org/2000/svg" xmlns:xlink="http://www.w3.org/1999/xlink" x="0px" y="0px"
	 viewBox="0 0 150 150" style="enable-background:new 0 0 150 150;" xml:space="preserve">
<style type="text/css">
	.st0{fill:#FFFFFF;}
	.st1{fill:#F2F2F2;}
	.st2{fill:#E6E6E6;}
</style>
<path class="st0" d="M66.5,148.2l-56.1-25.6C4.1,119.6,0,113.7,0,107.1V42.9c0-6.6,4.1-12.5,10.5-15.5L66.5,1.8
	c5.3-2.4,11.6-2.4,16.9,0l56.1,25.6c6.4,2.9,10.5,8.9,10.5,15.5v64.2c0,6.6-4.1,12.5-10.5,15.5l-56.1,25.6
	C78.1,150.6,71.9,150.6,66.5,148.2z M14.5,120.3l52,23.7c5.3,2.4,11.6,2.4,16.9,0l52-23.7c6.4-2.9,10.5-8.9,10.5-15.5V45.2
	c0-6.6-4.1-12.5-10.5-15.5L83.5,6c-5.3-2.4-11.6-2.4-16.9,0l-52,23.7C8.1,32.6,4.1,38.6,4.1,45.2v59.6
	C4.1,111.4,8.1,117.4,14.5,120.3z"/>
<g>
	<g>
		<path class="st1" d="M66.5,89.4c-0.9-3.1-1.5-6.3-1.8-9.5l-0.1-1.6h5.3c0.8,0,1.5-0.6,1.5-1.5V75h12.3v13.1h-1.5
			c-4.7,0.1-9.3,0.9-13.8,2.3l-1.5,0.4L66.5,89.4z"/>
		<path class="st1" d="M81.8,106.9c-5.8-0.9-11.2-6.4-14.4-14.7l-0.6-1.5l1.5-0.5c4.4-1.4,9-2.1,13.7-2.2h1.5v19.2L81.8,106.9z"/>
		<path class="st1" d="M72.4,105.1c-4.9-1.8-9.3-4.8-12.8-8.7l-1.1-1.3l1.5-0.9c1.8-1.1,3.6-2.1,5.6-2.9l1.4-0.6l0.5,1.5
			c1.4,3.9,3.6,7.5,6.5,10.5L72.4,105.1z"/>
		<path class="st1" d="M71.2,75V60.5l1.7,0.4c3,0.6,6.1,1,9.2,1h1.5V75L71.2,75z"/>
		<path class="st1" d="M57.6,94c-3-4.2-5-9-5.8-14.1l-0.3-1.7h4.6l4.9,9.8l1-5.6H65c0.3,2.4,0.8,4.7,1.5,7.1l0.4,1.3l-1.2,0.5
			c-2.1,0.8-4.1,1.9-6,3.1l-1.1,0.8L57.6,94z"/>
		<path class="st1" d="M61,51.8l3.6-2.6c2.4-1.7,5-3.2,7.7-4.2l1.5,2.4c-1.1,1.1-2.2,2.4-3.1,3.8l-0.4,0.7
			C70.3,51.8,61,51.8,61,51.8z"/>
	</g>
	<path class="st2" d="M56.1,78.3l-21.6,0.1l-0.1-26.6l26.8,0l0.1,0l0.1,0l8.5,0l0.3,0.1l0.9,0.4l0.1,22.6l0,0.2l0,0.1l0,3.1h-8.4
		L61.1,88L56.1,78.3z"/>
	<path class="st1" d="M82,62c-3.3-0.1-6.5-0.5-9.7-1.2l-1.1-0.3v-7.4c0-0.3-0.1-0.5-0.2-0.7l-0.5-0.8l0.5-0.8
		c3.1-4.5,6.8-7.2,10.8-7.8l1.7-0.2V62H82z"/>
	<g>
		<path class="st0" d="M83.5,75V62h1.5c4.7-0.1,9.3-0.9,13.8-2.3l1.5-0.4l0.4,1.5c1.2,4.2,1.8,8.5,1.9,12.9V75H83.5z"/>
		<path class="st0" d="M102.6,75v-1.5c-0.1-4.4-0.8-8.8-2.1-13.1l-0.4-1.3l1.2-0.5c2.1-0.8,4.1-1.9,6-3.1l1.1-0.8l0.8,1.1
			c3.7,5.1,5.9,11.1,6.2,17.4v1.5L102.6,75z"/>
		<path class="st0" d="M107.3,94.4c-1.9-1.2-3.9-2.3-6-3.1l-1.2-0.5l0.4-1.3c1.3-4.2,2-8.6,2.1-13.1V75h13v1.5
			c-0.3,6.3-2.5,12.4-6.2,17.4l-0.8,1.1L107.3,94.4z"/>
		<path class="st0" d="M93.1,102.6c2.9-3,5.1-6.6,6.5-10.5l0.5-1.5l1.4,0.6c1.9,0.8,3.8,1.8,5.6,2.9l1.5,0.9l-1.1,1.3
			c-3.5,3.9-7.9,6.9-12.7,8.7L93.1,102.6z"/>
		<path class="st0" d="M83.5,88.1h1.5c4.6,0.1,9.3,0.9,13.7,2.2l1.5,0.5l-0.5,1.5c-3.1,8.5-8.4,13.8-14.3,14.7l-1.7,0.2L83.5,88.1z"
			/>
		<path class="st0" d="M83.5,42.9l1.7,0.2c6,0.9,11.2,6.2,14.5,14.7l0.5,1.5l-1.5,0.5c-4.5,1.4-9.1,2.1-13.8,2.2h-1.5L83.5,42.9z"/>
		<path class="st0" d="M99.6,57.9c-1.4-3.9-3.6-7.5-6.5-10.4l1.5-2.4c4.9,1.8,9.3,4.8,12.7,8.7l1.1,1.3L107,56
			c-1.8,1.1-3.6,2.1-5.6,2.9l-1.4,0.6L99.6,57.9z"/>
		<path class="st0" d="M98.7,90.3c-4.5-1.4-9.1-2.2-13.8-2.2h-1.5V75h19.1v1.5c-0.1,4.3-0.8,8.7-2,12.8l-0.4,1.5L98.7,90.3z"/>
	</g>
	<path class="st0" d="M109.6,54.1L109.6,54.1C98,39.6,77,37.3,62.6,48.9c-0.6,0.5-1.2,1-1.7,1.5H35.9c-1.6,0-2.9,1.3-2.9,2.9v23.6
		c0,1.6,1.3,2.9,2.9,2.9h14.4c2.6,18.3,19.6,31,37.9,28.4c8.4-1.2,16-5.5,21.3-12.1l0.1-0.1c0,0,0,0,0-0.1
		C119.4,83.7,119.4,66.3,109.6,54.1C109.6,54.1,109.6,54.1,109.6,54.1L109.6,54.1z M72.8,46.3c-1.2,1.2-2.3,2.6-3.3,4h-4.2
		C67.7,48.7,70.2,47.3,72.8,46.3z M36,76.9V53.2h25.2c0.2,0,0.3,0,0.5,0h8.1v23.6h-7c-0.7,0-1.3,0.5-1.5,1.2l-0.9,5.5l-3-5.8
		c-0.2-0.5-0.7-0.8-1.3-0.8L36,76.9z M58.8,93.2c-2.9-4-4.8-8.6-5.5-13.5h2l4.6,9c0.2,0.5,0.7,0.8,1.3,0.8h0.2
		c0.6-0.1,1.1-0.6,1.2-1.2l1-5.6c0.3,2.5,0.9,4.9,1.6,7.3C62.9,90.8,60.8,91.9,58.8,93.2L58.8,93.2z M60.7,95.4
		c1.7-1.1,3.5-2,5.4-2.8c1.5,4.1,3.8,7.9,6.8,11.1C68.2,102,64,99.2,60.7,95.4z M82,105.5c-5.5-0.8-10.3-6.1-13.2-13.8
		c4.3-1.3,8.8-2.1,13.2-2.1V105.5z M82,86.6c-4.8,0.1-9.6,0.9-14.2,2.3c-0.9-3-1.5-6.1-1.7-9.2h3.7c1.6,0,2.9-1.3,2.9-2.9v-0.3h9.4
		L82,86.6z M82,73.6h-9.4V62.4c3.1,0.6,6.3,1,9.4,1.1V73.6z M82,60.5c-3.2-0.1-6.3-0.5-9.4-1.1v-6.2c0-0.5-0.2-1-0.4-1.5
		c2.8-4.1,6.2-6.6,9.9-7.1V60.5z M106.3,54.7c-1.7,1.1-3.5,2-5.3,2.7c-1.5-4.1-3.8-7.9-6.8-11C98.8,48.2,102.9,51,106.3,54.7z
		 M84.9,44.6c5.6,0.8,10.4,6.1,13.3,13.8c-4.3,1.3-8.8,2.1-13.3,2.2V44.6z M84.9,63.4c4.8-0.1,9.6-0.9,14.2-2.3
		c1.2,4.1,1.8,8.3,1.9,12.5H84.9V63.4z M84.9,76.5H101c-0.1,4.2-0.7,8.4-1.9,12.5c-4.6-1.4-9.4-2.2-14.2-2.3V76.5z M84.9,105.5v-16
		c4.5,0.1,9,0.8,13.3,2.2C95.4,99.4,90.5,104.7,84.9,105.5L84.9,105.5z M94.1,103.7c3-3.2,5.3-6.9,6.8-11c1.9,0.7,3.6,1.6,5.3,2.7
		C102.9,99.1,98.8,101.9,94.1,103.7z M108.1,93.1c-2-1.3-4.1-2.4-6.2-3.2c1.3-4.4,2-8.9,2.1-13.4h10
		C113.7,82.5,111.7,88.3,108.1,93.1L108.1,93.1z M104,73.6c-0.1-4.6-0.8-9.1-2.1-13.4c2.2-0.9,4.3-1.9,6.2-3.2
		c3.6,4.8,5.6,10.7,5.9,16.7H104z"/>
</g>
</svg>
