<?xml version="1.0" encoding="utf-8"?>
<!-- Generator: Adobe Illustrator 22.1.0, SVG Export Plug-In . SVG Version: 6.00 Build 0)  -->
<svg version="1.1" id="Calque_1" xmlns="http://www.w3.org/2000/svg" xmlns:xlink="http://www.w3.org/1999/xlink" x="0px" y="0px"
	 viewBox="0 0 150 150" style="enable-background:new 0 0 150 150;" xml:space="preserve">
<style type="text/css">
	.st0{fill:#FFFFFF;}
	.st1{fill:#F2F2F2;}
</style>
<path class="st0" d="M66.5,148.2l-56.1-25.6C4.1,119.6,0,113.7,0,107.1V42.9c0-6.6,4.1-12.5,10.5-15.5L66.5,1.8
	c5.3-2.4,11.6-2.4,16.9,0l56.1,25.6c6.4,2.9,10.5,8.9,10.5,15.5v64.2c0,6.6-4.1,12.5-10.5,15.5l-56.1,25.6
	C78.1,150.6,71.9,150.6,66.5,148.2z M14.5,120.3l52,23.7c5.3,2.4,11.6,2.4,16.9,0l52-23.7c6.4-2.9,10.5-8.9,10.5-15.5V45.2
	c0-6.6-4.1-12.5-10.5-15.5L83.5,6c-5.3-2.4-11.6-2.4-16.9,0l-52,23.7C8.1,32.6,4.1,38.6,4.1,45.2v59.6
	C4.1,111.4,8.1,117.4,14.5,120.3z"/>
<g>
	<g>
		<path class="st1" d="M60.6,70.3l0.3-2c1.3-8.9,11.1-9.6,14.1-9.6s12.8,0.7,14.1,9.6l0.3,1.9L60.6,70.3z"/>
		<circle class="st1" cx="75" cy="47.5" r="6.3"/>
		<circle class="st1" cx="46.5" cy="86" r="6.3"/>
		<circle class="st1" cx="103.5" cy="86" r="6.3"/>
	</g>
	<g>
		<path class="st0" d="M32.1,108.8l0.3-2c1.3-8.9,11.1-9.6,14.1-9.6c3,0,12.8,0.7,14.1,9.6l0.3,1.9L32.1,108.8z"/>
		<path class="st0" d="M89.1,108.8l0.3-2c1.3-8.9,11.1-9.6,14.1-9.6c3,0,12.8,0.7,14.1,9.6l0.3,1.9L89.1,108.8z"/>
	</g>
	<g>
		<path class="st0" d="M60.8,72h28.5c0.9,0,1.7-0.7,1.7-1.7c0-8.1-6.1-13.2-15.9-13.2s-15.9,5-15.9,13.2C59.1,71.2,59.8,72,60.8,72z
			 M75,60.5c2.7,0,11.3,0.6,12.4,8.1H62.6C63.7,61.1,72.3,60.5,75,60.5z"/>
		<path class="st0" d="M75,55.4c4.4,0,8-3.6,8-8s-3.6-8-8-8s-8,3.6-8,8C67.1,51.9,70.6,55.4,75,55.4z M75,42.9
			c2.5,0,4.6,2.1,4.6,4.6s-2.1,4.6-4.6,4.6s-4.6-2.1-4.6-4.6S72.5,42.9,75,42.9z"/>
		<path class="st0" d="M46.5,95.6c-9.8,0-15.9,5-15.9,13.2c0,0.9,0.7,1.7,1.7,1.7h28.5c0.9,0,1.7-0.7,1.7-1.7
			C62.4,100.7,56.3,95.6,46.5,95.6z M34.1,107.1c1.1-7.5,9.7-8.1,12.4-8.1c2.8,0,11.3,0.6,12.4,8.1H34.1z"/>
		<path class="st0" d="M46.5,94c4.4,0,8-3.6,8-8s-3.6-8-8-8s-8,3.6-8,8l0,0C38.6,90.4,42.1,93.9,46.5,94z M46.5,81.4
			c2.5,0,4.6,2.1,4.6,4.6c0,2.5-2.1,4.6-4.6,4.6s-4.6-2.1-4.6-4.6C41.9,83.5,44,81.4,46.5,81.4z"/>
		<path class="st0" d="M103.5,95.6c-9.8,0-15.9,5-15.9,13.2c0,0.9,0.7,1.7,1.7,1.7h28.5c0.9,0,1.7-0.7,1.7-1.7
			C119.4,100.7,113.3,95.6,103.5,95.6z M91,107.1c1.1-7.5,9.7-8.1,12.4-8.1c2.8,0,11.3,0.6,12.4,8.1H91z"/>
		<path class="st0" d="M103.5,94c4.4,0,8-3.6,8-8s-3.6-8-8-8c-4.4,0-8,3.6-8,8l0,0C95.5,90.4,99.1,93.9,103.5,94z M103.5,81.4
			c2.5,0,4.6,2.1,4.6,4.6c0,2.5-2.1,4.6-4.6,4.6c-2.5,0-4.6-2.1-4.6-4.6C98.9,83.5,100.9,81.4,103.5,81.4z"/>
		<path class="st0" d="M76.7,85.7v-9.9c0-0.9-0.7-1.7-1.7-1.7s-1.7,0.7-1.7,1.7v9.9l-7,7c-0.7,0.7-0.7,1.7,0,2.4s1.7,0.7,2.4,0
			l6.3-6.3l6.3,6.3c0.7,0.6,1.8,0.5,2.4-0.2c0.5-0.6,0.5-1.6,0-2.2L76.7,85.7z"/>
	</g>
</g>
</svg>
