<?xml version="1.0" encoding="utf-8"?>
<!-- Generator: Adobe Illustrator 22.1.0, SVG Export Plug-In . SVG Version: 6.00 Build 0)  -->
<svg version="1.1" id="Calque_1" xmlns="http://www.w3.org/2000/svg" xmlns:xlink="http://www.w3.org/1999/xlink" x="0px" y="0px"
	 viewBox="0 0 74 81" style="enable-background:new 0 0 74 81;" xml:space="preserve">
<style type="text/css">
	.st0{fill:#FFFFFF;}
</style>
<path class="st0" d="M32.8,80L5.2,66.2C2,64.6,0,61.4,0,57.9V23.2c0-3.5,2-6.8,5.2-8.4L32.8,1c2.6-1.3,5.7-1.3,8.4,0l27.7,13.8
	c3.2,1.6,5.2,4.8,5.2,8.4v34.7c0,3.5-2,6.8-5.2,8.4L41.2,80C38.5,81.4,35.5,81.4,32.8,80z M7.2,65l25.7,12.8c2.6,1.3,5.7,1.3,8.4,0
	L66.8,65c3.2-1.6,5.2-4.8,5.2-8.4V24.4c0-3.5-2-6.8-5.2-8.4L41.2,3.2c-2.6-1.3-5.7-1.3-8.4,0L7.2,16C4,17.6,2,20.9,2,24.4v32.2
	C2,60.2,4,63.4,7.2,65z"/>
</svg>
