<?xml version="1.0" encoding="utf-8"?>
<!-- Generator: Adobe Illustrator 21.0.2, SVG Export Plug-In . SVG Version: 6.00 Build 0)  -->
<svg version="1.1" id="Calque_1" xmlns="http://www.w3.org/2000/svg" xmlns:xlink="http://www.w3.org/1999/xlink" x="0px" y="0px"
	 viewBox="0 0 57.6 24.7" style="enable-background:new 0 0 57.6 24.7;" xml:space="preserve">
<style type="text/css">
	.st0{fill:url(#SVGID_1_);}
	.st1{fill:url(#SVGID_2_);}
	.st2{fill:#009EE2;}
	.st3{fill:#FFFFFF;}
</style>
<g>
	<linearGradient id="SVGID_1_" gradientUnits="userSpaceOnUse" x1="46.2884" y1="12.7231" x2="57.5812" y2="12.7231">
		<stop  offset="0" style="stop-color:#69C8F2"/>
		<stop  offset="1" style="stop-color:#498AC9"/>
	</linearGradient>
	<path class="st0" d="M57.6,12.6C57.6,12.6,57.5,12.5,57.6,12.6l-2.7-6.7l0,0l0,0c-0.1-0.1-0.2-0.3-0.4-0.3v0h-7.9v0
		c-0.1,0-0.2,0-0.3,0.1l0.3,0.8l1.3,3.2L48,9.3l0.2-0.5c0,0,0,0,0,0c0-0.1,0.1-0.2,0.3-0.2H49h3.3h0.1h0.1c0.1,0,0.3,0.1,0.3,0.2
		l0,0.1l0.1,0.1l1.4,3.5l0,0l0,0c0,0,0,0.1,0,0.1c0,0.1,0,0.1,0,0.1l0,0l0,0L53,16.3l-0.1,0.2l0,0.1c-0.1,0.1-0.2,0.2-0.4,0.2v0
		h-0.6h-3.3c0,0,0,0,0,0c-0.2,0-0.3-0.1-0.4-0.2c0,0,0,0,0-0.1c0,0,0,0,0,0l-0.3-0.7L46.6,19l-0.3,0.8c0.1,0.1,0.2,0.1,0.3,0.1h7.9
		c0.2,0,0.3-0.1,0.4-0.2c0,0,0,0,0-0.1l2.6-6.6c0,0,0-0.1,0-0.1c0,0,0-0.1,0-0.1C57.6,12.7,57.6,12.6,57.6,12.6z"/>
	<linearGradient id="SVGID_2_" gradientUnits="userSpaceOnUse" x1="44.6665" y1="12.7228" x2="49.0597" y2="12.7228">
		<stop  offset="0" style="stop-color:#B6D16E"/>
		<stop  offset="1" style="stop-color:#65B22E"/>
	</linearGradient>
	<path class="st1" d="M49.1,12.7c0-0.1,0-0.1,0-0.2l0,0l-1.2-2.9l-1.3-3.2l-0.3-0.8c-0.1,0-0.1,0.1-0.1,0.2l0,0.1l-1.4,3.6l0,0
		c0,0,0,0.1,0,0.1c0,0,0,0.1,0,0.1l0,0.1l1.1,2.8l-1.1,2.8c0,0,0,0.1,0,0.1c0,0,0,0.1,0,0.1c0,0,0,0.1,0,0.1c0,0,0,0.1,0,0.1
		l1.4,3.6l0,0c0,0.1,0.1,0.1,0.1,0.2l0.3-0.8l1.3-3.2l1.2-2.9l0,0C49,12.8,49.1,12.8,49.1,12.7z"/>
	<path class="st2" d="M51.1,9.9l0-0.1C51.1,9.8,51.1,9.9,51.1,9.9z"/>
</g>
<g>
	<path class="st3" d="M5.4,20.2V9.5c0-1,0-2.3-1.3-2.6c-0.1,0-0.4-0.1-0.6-0.1c-1.2,0-1.9,0.9-2,1.2C1.3,8.3,1.2,8.7,1.2,8.8v11.4H0
		V0h1.2l0,6.9c0.2-0.3,0.6-0.8,1.5-1.1c0.5-0.2,0.9-0.2,1.1-0.2c0.5,0,0.8,0.1,1,0.2C5.3,6,6.1,6.3,6.5,7.6C6.6,8,6.6,8.3,6.6,8.8
		v11.4H5.4z"/>
	<path class="st3" d="M15.2,19c-0.9,1.2-2.2,1.2-2.7,1.2c-0.4,0-0.9-0.1-1.2-0.2c-0.4-0.1-1.4-0.6-1.8-1.7c-0.2-0.4-0.2-0.8-0.2-1.6
		V9.2c0-0.2,0-0.7,0.2-1.3c0.3-0.8,1-2.1,3.1-2.1c1.5,0,2.3,0.7,2.7,1.3c0.6,0.9,0.6,2.2,0.6,3.3v2.9h-5.4v3.5c0,0.1,0,0.6,0.1,1
		c0.2,0.6,0.6,1.4,2,1.4c0.2,0,0.9,0,1.4-0.5c0.1-0.1,0.3-0.3,0.4-0.6c0.2-0.6,0.2-1.4,0.2-2.8h1.2v1.6C15.8,17.7,15.7,18.3,15.2,19
		z M14.6,9.5c0-1.3-0.3-1.9-0.8-2.3c-0.2-0.1-0.6-0.4-1.3-0.4c-0.2,0-0.8,0-1.3,0.4c-0.8,0.6-0.8,1.5-0.8,2.4v2.5h4.1V9.5z"/>
	<path class="st3" d="M23.5,20.2l-2.4-6.5l-2.5,6.5h-1.3l3.1-7.5l-2.9-6.9h1.3l2.2,5.7l2.3-5.7h1.3l-2.9,6.8l3.1,7.6H23.5z"/>
	<path class="st3" d="M32.7,19.8c-0.2-0.2-0.3-0.3-0.4-0.7c-0.4,0.3-1.3,1.1-2.8,1.1c-2,0-2.8-1.6-2.8-3.4c0-1.1,0.3-1.8,0.5-2.3
		c0.8-1.5,2.4-2.1,3.8-2.9c0.6-0.3,0.8-0.4,1.3-0.8V9.2c0-0.7,0-1.6-0.7-2.1c-0.3-0.3-0.7-0.3-1.1-0.3c-1.1,0-1.4,0.5-1.6,0.9
		c-0.3,0.7-0.3,1.7-0.3,2.4h-1.2c0-1.6,0-2.2,0.3-2.9c0.7-1.6,2.5-1.6,2.9-1.6c0.6,0,1.1,0.1,1.7,0.4c1.1,0.6,1.2,1.6,1.2,2.8v9.7
		c0.1,0.5,0.5,0.5,0.9,0.5v1.1C33.4,20.2,33,20.1,32.7,19.8z M32.3,12.2c-0.3,0.2-0.6,0.4-0.9,0.6c-0.5,0.3-1,0.5-1.4,0.8
		c-1.3,0.8-2,1.7-2,3.3c0,0.5,0.1,2.2,1.9,2.2c1.1,0,1.8-0.6,2.5-1.3V12.2z"/>
	<path class="st3" d="M42.7,22.6c-0.5,1.5-1.9,2.1-3.3,2.1c-1.1,0-2.4-0.4-2.9-1.5c-0.2-0.4-0.3-0.8-0.3-1.6h1.2
		c0,0.1,0,0.6,0.2,1.1c0.4,0.8,1.6,0.8,1.8,0.8c0.3,0,1.6-0.1,2.1-1.2c0.1-0.3,0.2-0.5,0.2-1.1v-2.4c-0.3,0.3-1.1,1.3-2.5,1.3
		c-0.3,0-0.9-0.1-1.5-0.4c-1.3-0.8-1.3-2.2-1.3-3.5V8.9c0-0.5,0-0.9,0.2-1.5c0.6-1.7,2.3-1.8,2.7-1.8c1.4,0,2.1,0.9,2.4,1.3V5.8h1.2
		v15.1C42.9,21.1,42.9,21.8,42.7,22.6z M41.7,8.8c-0.2-1.1-1-2-2.2-2c-0.1,0-0.7,0-1.1,0.3c-0.9,0.6-0.9,1.6-0.9,2.5v6.6
		c0,0.9,0,1.8,0.7,2.4c0.5,0.3,0.9,0.3,1.2,0.3c0.4,0,1.3-0.2,1.9-1.1c0.1-0.3,0.2-0.5,0.4-1V8.8z"/>
</g>
</svg>
