<?xml version="1.0" encoding="utf-8"?>
<!-- Generator: Adobe Illustrator 22.1.0, SVG Export Plug-In . SVG Version: 6.00 Build 0)  -->
<svg version="1.1" id="Calque_1" xmlns="http://www.w3.org/2000/svg" xmlns:xlink="http://www.w3.org/1999/xlink" x="0px" y="0px"
	 viewBox="0 0 150 150" style="enable-background:new 0 0 150 150;" xml:space="preserve">
<style type="text/css">
	.st0{fill:#FFFFFF;}
	.st1{fill:#E6E6E6;}
</style>
<path class="st0" d="M66.5,148.2l-56.1-25.6C4.1,119.6,0,113.7,0,107.1V42.9c0-6.6,4.1-12.5,10.5-15.5L66.5,1.8
	c5.3-2.4,11.6-2.4,16.9,0l56.1,25.6c6.4,2.9,10.5,8.9,10.5,15.5v64.2c0,6.6-4.1,12.5-10.5,15.5l-56.1,25.6
	C78.1,150.6,71.9,150.6,66.5,148.2z M14.5,120.3l52,23.7c5.3,2.4,11.6,2.4,16.9,0l52-23.7c6.4-2.9,10.5-8.9,10.5-15.5V45.2
	c0-6.6-4.1-12.5-10.5-15.5L83.5,6c-5.3-2.4-11.6-2.4-16.9,0l-52,23.7C8.1,32.6,4.1,38.6,4.1,45.2v59.6
	C4.1,111.4,8.1,117.4,14.5,120.3z"/>
<g>
	<path class="st0" d="M54.5,94c-8.1,0-14.6-6.5-14.6-14.6c0-8.1,6.5-14.6,14.6-14.6s14.6,6.5,14.6,14.6c0,3.9-1.5,7.6-4.3,10.3
		C62.1,92.5,58.4,94,54.5,94z"/>
	<path class="st0" d="M44.2,103.1V90.2l2.7,1.7c6.9,4.2,15.9,2,20.1-4.9s2-15.9-4.9-20.1c-4.7-2.8-10.5-2.8-15.1,0l-2.7,1.7V42.3
		l38.2,4.6v60.8L44.2,103.1z"/>
	<path class="st1" d="M82.4,46.9l38.2-4.6v60.8l-38.2,4.7L82.4,46.9L82.4,46.9z"/>
	<g>
		<path class="st0" d="M120.4,40.5l-38,4.6l-38-4.6c-1-0.1-1.9,0.6-2,1.6c0,0.1,0,0.2,0,0.2v26.1c-5.5,6-5.7,15.1-0.6,21.4
			l-13.6,13.5c-0.7,0.6-0.8,1.8-0.2,2.5c0.6,0.7,1.8,0.8,2.5,0.2c0.1-0.1,0.1-0.1,0.2-0.2l11.6-11.6v8.8c0,0.9,0.7,1.7,1.6,1.8
			l38.3,4.6h0.4l38.2-4.6c0.9-0.1,1.6-0.9,1.6-1.8V42.3c0-1-0.8-1.8-1.8-1.8C120.5,40.5,120.5,40.5,120.4,40.5L120.4,40.5z
			 M45.4,70.3c5-5,13.1-5,18.1,0c5,5,5,13.1,0,18.1c-5,5-13.1,5-18.1,0c-5-5-5.1-13-0.1-18C45.3,70.4,45.4,70.4,45.4,70.3z
			 M80.6,105.7L46,101.5v-8.1c7.7,4.7,17.8,2.3,22.6-5.4c4.7-7.7,2.3-17.8-5.4-22.6c-5.3-3.2-11.9-3.2-17.1,0V44.3l34.6,4.2V105.7z
			 M118.8,101.5l-34.6,4.2V48.5l34.6-4.2V101.5z"/>
		<path class="st0" d="M49.9,58.5l25,3h0.2c1,0.1,1.8-0.7,1.9-1.7c0.1-1-0.7-1.8-1.7-1.9l-25-3c-1-0.1-1.9,0.6-2,1.6
			C48.1,57.5,48.8,58.4,49.9,58.5L49.9,58.5L49.9,58.5z"/>
		<path class="st0" d="M89,61.6h0.2l25-3c1-0.1,1.7-1,1.6-2c-0.1-1-1-1.7-2-1.6l-25,3c-1,0.1-1.7,0.9-1.7,1.9
			C87.2,60.9,88,61.6,89,61.6L89,61.6z"/>
		<path class="st0" d="M89,76.6h0.2l25-3c1-0.1,1.7-1,1.6-2c-0.1-1-1-1.7-2-1.6l-25,3c-1,0.1-1.7,0.9-1.7,1.9
			C87.2,75.9,88,76.7,89,76.6L89,76.6z"/>
		<path class="st0" d="M89,91.7h0.2l25-3c1-0.1,1.7-1,1.6-2c-0.1-1-1-1.7-2-1.6l-25,3c-1,0.1-1.7,0.9-1.7,1.9
			C87.2,91,88,91.7,89,91.7L89,91.7z"/>
	</g>
</g>
</svg>
